<svg fill="none" height="15" viewBox="0 0 15 15" width="15" xmlns="http://www.w3.org/2000/svg"><g stroke="#4147d5" stroke-linejoin="round" stroke-width="1.5"><path d="m1.53167 11.0367c.11891.9578.89268 1.7144 1.85261 1.8148 1.3283.1388 2.70496.2854 4.11572.2854s2.7874-.1466 4.1157-.2854c.9599-.1004 1.7337-.857 1.8526-1.8148.142-1.14357.2817-2.32619.2817-3.53672 0-1.21054-.1397-2.39315-.2817-3.53669-.1189-.9578-.8927-1.71444-1.8526-1.81479-1.3283-.13885-2.70494-.28546-4.1157-.28546s-2.78743.14661-4.11572.28546c-.95993.10035-1.7337.85699-1.85262 1.81479-.14197 1.14354-.28166 2.32615-.28166 3.53669 0 1.21053.13969 2.39315.28167 3.53672z" fill="#d7e0ff"/><path d="m1.55957 3.70435 4.70212 3.70746c.72624.57262 1.75038.57262 2.47662 0l4.70209-3.70746"/></g></svg>